<svg width="513" height="515" xmlns="http://www.w3.org/2000/svg">

 <g>
  <title>background</title>
  <rect x="-1" y="-1" width="515" height="517" id="canvas_background" fill="none"/>
 </g>
 <g>
  <title>Layer 1</title>
  <ellipse opacity="0.89" stroke="#000" ry="215" rx="216.000001" id="svg_6" cy="263.937488" cx="258.999992" stroke-width="0" fill="#fff"/>
  <defs>
   <filter id="svg_18" x="-50%" y="-50%" width="200%" height="200%">
    <feGaussianBlur stdDeviation="0"/>
   </filter>
  </defs>
  <g stroke="null" id="svg_28">
   <g stroke="null" transform="matrix(0.8649126376700897,0,0,0.8676967028269962,-1368.5960315378625,-1415.3944334809316) " id="svg_26">
    <title stroke="null" transform="translate(1.1561861038208008,-3.4574294090270996) translate(-2.2737367544323206e-13,-16.578134536743164) translate(-24.49872589111328,-10.657371520996094) translate(436.2069396972656,342.4132385253906) translate(-421.1653137207031,-350.86785888671875) translate(-421.1653137207031,-350.86785888671875) translate(2051.999755859375,0) translate(0,2059.999755859375) ">background</title>
    <rect stroke="null" x="1621.533528" y="1668.984341" width="515" height="517" id="svg_24" fill="none"/>
   </g>
   <g stroke="null" transform="matrix(0.8649126376700897,0,0,0.8676967028269962,-1368.5960315378625,-1415.3944334809316) " id="svg_27">
    <title stroke="null" transform="translate(1.1561861038208008,-3.4574294090270996) translate(-2.2737367544323206e-13,-16.578134536743164) translate(-24.49872589111328,-10.657371520996094) translate(436.2069396972656,342.4132385253906) translate(-421.1653137207031,-350.86785888671875) translate(-421.1653137207031,-350.86785888671875) translate(2051.999755859375,0) translate(0,2059.999755859375) ">Layer 1</title>
    <g stroke="null" id="svg_19" transform="rotate(0.421382337808609 1878.944580078066,1935.647094726572) ">
     <path stroke="null" d="m1847.003608,1924.844051l-61.4345,0c-3.09391,0 -6.01632,1.4615 -7.92917,3.96545s-2.60495,5.7726 -1.87653,8.86947c5.77486,24.56506 15.10572,49.67731 40.52295,49.67731s34.74741,-25.11225 40.52296,-49.67731c0.72841,-3.09618 0.03632,-6.36551 -1.87653,-8.86947s-4.83526,-3.96545 -7.92918,-3.96545z" id="svg_23" transform="rotate(0.421382337808609 1816.286376953195,1956.099975585939) " stroke-width="0" fill="#000000"/>
     <path stroke="null" d="m1817.207118,1757.917251c-13.53792,0 -25.46364,5.5648 -34.48779,16.09249c-16.51548,19.26693 -21.99374,52.88362 -16.28209,99.91637c0.95709,7.86857 1.84962,14.75566 2.72803,21.05536c0.71361,5.11527 4.96843,8.91311 9.98663,8.91311l76.11044,0c5.01753,0 9.27301,-3.79784 9.98663,-8.91311c0.88177,-6.3191 1.77363,-13.20618 2.72803,-21.05536c0,-0.0007 0,-0.0007 0,-0.00139c5.71098,-47.03136 0.23272,-80.64736 -16.28209,-99.91498c-9.02416,-10.52769 -20.9492,-16.09249 -34.48779,-16.09249z" id="svg_22" transform="rotate(0.421382337808609 1817.2067871093311,1830.9058837890645) " stroke-width="0" fill="#000000"/>
     <path stroke="null" d="m1970.478608,2050.953181l-61.43449,0c-3.09392,0 -6.01633,1.46151 -7.92918,3.96546s-2.60494,5.7726 -1.87653,8.86946c5.77487,24.56506 15.10573,49.67732 40.52296,49.67732s34.74741,-25.11226 40.52295,-49.67732c0.72842,-3.09617 0.03632,-6.36551 -1.87653,-8.86946s-4.83526,-3.96546 -7.92918,-3.96546z" id="svg_21" transform="rotate(0.421382337808609 1939.7612304687245,2082.208984375011) " stroke-width="0" fill="#000000"/>
     <path stroke="null" d="m1975.169918,1900.118871c-9.02416,-10.52768 -20.9492,-16.09248 -34.48779,-16.09248s-25.46364,5.5648 -34.4878,16.09248c-16.51548,19.26693 -21.99373,52.88362 -16.28209,99.91637c0.95441,7.84918 1.84694,14.73696 2.72803,21.05537c0.71362,5.11527 4.96843,8.9131 9.98664,8.9131l76.11043,0c5.01753,0 9.27302,-3.79783 9.98664,-8.9131c0.8784,-6.29971 1.77093,-13.18679 2.72803,-21.05537c0,-0.00069 0,-0.00138 0,-0.00207c5.71164,-47.03068 0.23339,-80.64737 -16.28209,-99.9143z" id="svg_20" transform="rotate(0.421382337808609 1940.6818847655734,1957.0150146484473) " stroke-width="0" fill="#000000"/>
    </g>
    <ellipse stroke="#000" fill="none" stroke-width="36.5" stroke-opacity="null" fill-opacity="null" cx="1879.533528" cy="1929.984341" id="svg_17" rx="234.5" ry="234" filter="url(#svg_18)"/>
   </g>
  </g>
 </g>
</svg>