<svg id="Capa_1" enable-background="new 0 0 512.001 512.001" height="512" viewBox="0 0 512.001 512.001" width="512" xmlns="http://www.w3.org/2000/svg"><g><path d="m339 281.985c0 22.056 17.944 40 40 40s40-17.944 40-40-17.944-40-40-40-40 17.944-40 40zm60 0c0 11.028-8.972 20-20 20s-20-8.972-20-20 8.972-20 20-20 20 8.972 20 20z"/><circle cx="502.001" cy="261.985" r="10"/><path d="m256 441.985c71.007 0 256-17.474 256-85v-50c0-5.522-4.478-10-10-10s-10 4.478-10 10v50c0 17.015-36.716 41.266-117.129 55.275l-110.551-165.822c-2.195-3.294-6.124-4.982-10.027-4.307-3.899.676-7.034 3.588-7.994 7.428l-26.559 106.235-78.193-52.129c-4.414-2.944-10.361-1.926-13.547 2.32l-64.818 86.424c-27.181-11.012-43.182-24.037-43.182-35.424v-195.934c51.136 33.329 175.072 40.934 236 40.934 61.065 0 184.835-7.586 236-40.934v55.934c0 5.522 4.478 10 10 10s10-4.478 10-10v-85c0-37.282-82.433-54.764-131.569-61.867-2.876-.412-5.783.438-7.977 2.338s-3.454 4.658-3.454 7.559v95.006c-34.946 4.563-73.806 6.964-113 6.964-39.191 0-78.054-2.401-113-6.964v-95.006c0-2.901-1.261-5.66-3.454-7.56s-5.106-2.75-7.977-2.338c-49.136 7.104-131.569 24.586-131.569 61.868v225c0 68.049 187.721 85 256 85zm-117.676-116.432 82.129 54.752c2.707 1.804 6.12 2.181 9.153 1.007 3.032-1.173 5.307-3.747 6.095-6.901l24.518-98.07 92.862 139.288c-30.636 4.166-63.866 6.356-97.081 6.356-65.323 0-127.401-8.153-173.089-22.548zm250.676-233.883c19.725 3.22 103 20.11 103 40.315 0 9.383-28.211 28.051-103 40.123zm-266 0v80.438c-74.787-12.072-103-30.74-103-40.123 0-20.205 83.275-37.095 103-40.315z"/></g></svg>